<?xml version="1.0" standalone="no"?><svg xmlns="http://www.w3.org/2000/svg" viewBox="0 0 1440 320"><path fill="#f3f3f3" fill-opacity="1" d="M0,96L26.7,117.3C53.3,139,107,181,160,170.7C213.3,160,267,96,320,69.3C373.3,43,427,53,480,101.3C533.3,149,587,235,640,277.3C693.3,320,747,320,800,298.7C853.3,277,907,235,960,192C1013.3,149,1067,107,1120,80C1173.3,53,1227,43,1280,64C1333.3,85,1387,139,1413,165.3L1440,192L1440,320L1413.3,320C1386.7,320,1333,320,1280,320C1226.7,320,1173,320,1120,320C1066.7,320,1013,320,960,320C906.7,320,853,320,800,320C746.7,320,693,320,640,320C586.7,320,533,320,480,320C426.7,320,373,320,320,320C266.7,320,213,320,160,320C106.7,320,53,320,27,320L0,320Z"></path></svg>